<?xml version="1.0" encoding="utf-8"?>
<!-- Generator: Adobe Illustrator 20.0.0, SVG Export Plug-In . SVG Version: 6.00 Build 0)  -->
<svg version="1.1" id="Livello_1" xmlns="http://www.w3.org/2000/svg" xmlns:xlink="http://www.w3.org/1999/xlink" x="0px" y="0px"
	 viewBox="0 0 106.7 43" style="enable-background:new 0 0 106.7 43;" xml:space="preserve">
<style type="text/css">
	.st0{fill:#FFFFFF;}
</style>
<g id="XMLID_123_">
	<g id="XMLID_129_">
		<path id="XMLID_5_" class="st0" d="M88.5,26.8c-2.3-1.8-15-11.6-29.6-22.6L58.6,4c-1.7-1.3-3.5-2.6-5.3-4l0,0l0,0
			c-1.1,0.8-2.1,1.6-3.2,2.4c0.7-0.5-2.4,1.8-2.4,1.8C33.1,15.2,20.3,25,18.1,26.8C4.3,38.2-0.5,42.6,0,43
			c0.5,0.3,6.6-3.2,22.1-13.2c2.6-1.7,16-11,31.2-21.7C68.5,18.8,82,28.2,84.5,29.8C100,39.9,106.1,43.3,106.6,43
			S102.3,38.2,88.5,26.8z"/>
	</g>
</g>
</svg>
