<?xml version="1.0" encoding="utf-8"?>
<!-- Generator: Adobe Illustrator 20.0.0, SVG Export Plug-In . SVG Version: 6.00 Build 0)  -->
<svg version="1.1" id="Livello_1" xmlns="http://www.w3.org/2000/svg" xmlns:xlink="http://www.w3.org/1999/xlink" x="0px" y="0px"
	 viewBox="0 0 106.7 43" style="enable-background:new 0 0 106.7 43;" xml:space="preserve">
<style type="text/css">
	.st0{fill:#FFFFFF;}
</style>
<g id="XMLID_123_">
	<g id="XMLID_129_">
		<path id="XMLID_5_" class="st0" d="M106.6,0c-0.5-0.3-6.6,3.1-22.1,13.2c-2.5,1.6-16,11-31.2,21.7c-15.2-10.7-28.6-20-31.2-21.7
			C6.6,3.2,0.5-0.3,0,0c-0.5,0.4,4.3,4.8,18.1,16.2c2.2,1.8,15,11.6,29.6,22.6c0,0,3.1,2.3,2.4,1.8c1.1,0.8,2.1,1.6,3.2,2.4l0,0l0,0
			c1.8-1.4,3.6-2.7,5.3-4l0.3-0.2c14.6-11,27.3-20.8,29.6-22.6C102.3,4.8,107.1,0.3,106.6,0z"/>
	</g>
</g>
</svg>
