<?xml version="1.0" encoding="utf-8"?>
<!-- Generator: Adobe Illustrator 20.0.0, SVG Export Plug-In . SVG Version: 6.00 Build 0)  -->
<svg version="1.1" id="Livello_1" xmlns="http://www.w3.org/2000/svg" xmlns:xlink="http://www.w3.org/1999/xlink" x="0px" y="0px"
	 viewBox="0 0 435.6 175.9" style="enable-background:new 0 0 435.6 175.9;" xml:space="preserve">
<style type="text/css">
	.st0{fill:#F4B24B;}
</style>
<path class="st0" d="M435.5,0.1c-1.9-1.4-26.9,12.8-90.3,53.8c-10.3,6.7-65.2,45-127.4,88.6c-62.1-43.6-117-81.9-127.4-88.6
	C27,12.9,2-1.3,0.1,0.1c-1.9,1.4,17.8,19.7,74,66c9.1,7.5,61.3,47.3,120.8,92.4c0,0,12.5,9.5,9.8,7.4c4.4,3.3,8.7,6.6,13.2,10l0,0
	l0,0c7.3-5.6,14.6-11.1,21.8-16.5c0,0,1.1-0.9,1.1-0.8c59.5-45.1,111.7-84.9,120.8-92.4C417.8,19.8,437.4,1.5,435.5,0.1z"/>
</svg>
