<?xml version="1.0" encoding="utf-8"?>
<!-- Generator: Adobe Illustrator 20.0.0, SVG Export Plug-In . SVG Version: 6.00 Build 0)  -->
<svg version="1.1" id="Livello_1" xmlns="http://www.w3.org/2000/svg" xmlns:xlink="http://www.w3.org/1999/xlink" x="0px" y="0px"
	 viewBox="0 0 500 103.4" style="enable-background:new 0 0 500 103.4;" xml:space="preserve">
<style type="text/css">
	.st0{fill:#FFFFFF;}
</style>
<g id="XMLID_123_">
	<g id="XMLID_129_">
		<g id="XMLID_131_">
			<path id="XMLID_17_" class="st0" d="M39.3,2c0.1-0.2,0.2-0.3,0.3-0.5s0.3-0.3,0.5-0.4c0.3-0.1,0.6-0.2,1-0.2
				c0.4-0.1,1-0.1,1.8-0.1c0.3,0,0.8,0,1.3,0c0.6,0,1.1,0,1.8-0.1c0.6,0,1.3-0.1,1.9-0.1c0.7,0,1.3-0.1,1.8-0.1
				c0.1,0.4,0.1,0.8,0.1,1c0,0.7-0.2,1-0.6,1.1c-1.5,0.2-2.5,0.5-3,0.9s-0.8,0.8-0.8,1.4c0,0,0,0.6,0.1,1.7s0.2,2.9,0.3,5.4
				s0.3,5.9,0.5,10.1s0.4,9.4,0.7,15.6c0,0.8,0.3,1.4,0.8,1.8c0.5,0.4,1.5,0.7,3.1,1c0.2,0,0.4,0.2,0.5,0.4s0.2,0.4,0.2,0.7
				s0,0.6-0.1,1c-1.5-0.1-2.8-0.2-4-0.2C46.2,42,45.1,42,44,42c-0.4,0-1,0-1.6,0s-1.3,0-2,0.1s-1.4,0.1-2.1,0.1
				c-0.7,0-1.3,0.1-1.8,0.1c-0.1-0.4-0.1-0.8-0.1-1c0-0.7,0.2-1,0.6-1c1.7-0.3,2.8-0.7,3.5-1c0.6-0.3,0.9-0.9,0.9-1.7
				c0-0.1,0-0.9-0.1-2.4c-0.1-1.4-0.1-3.2-0.3-5.3c-0.1-2.1-0.2-4.3-0.3-6.7s-0.2-4.7-0.3-6.8s-0.2-4-0.3-5.5S40,8.4,40,8.1
				L26.2,41.6c-0.2,0.4-0.3,0.7-0.5,0.9c-0.1,0.2-0.4,0.3-0.6,0.3c-0.3,0-0.5,0-0.6-0.1L9,7c0,0.4-0.1,1.5-0.2,3.1
				c-0.1,1.6-0.1,3.6-0.3,5.8c-0.1,2.2-0.2,4.6-0.4,7.1c0,2.5-0.1,4.8-0.2,7c-0.1,2.1-0.2,3.9-0.3,5.3c-0.1,1.4-0.1,2.2-0.1,2.3
				c0,1.3,1.4,2.2,4.3,2.7c0.4,0,0.6,0.4,0.6,1c0,0.3,0,0.6-0.1,1c-1.1-0.1-2.3-0.2-3.4-0.2c-1-0.1-2-0.1-2.8-0.1
				c-0.7,0-1.6,0-2.7,0.1s-2.2,0.1-3.2,0.2C0,41.9,0,41.6,0,41.3c0-0.6,0.2-0.9,0.6-1c1.1-0.2,2.1-0.5,2.8-0.9s1.1-1,1.2-1.8
				c0-0.4,0-1.5,0.1-3.2c0.1-1.8,0.2-3.8,0.3-6.2c0.1-2.4,0.2-5,0.3-7.7c0.1-2.7,0.2-5.2,0.3-7.5c0.1-2.3,0.2-4.2,0.3-5.7
				C6,5.7,6,4.9,6,4.9c0-0.7-0.3-1.2-0.8-1.5s-1.5-0.6-3-0.9c-0.4,0-0.6-0.4-0.6-1.1c0-0.3,0-0.6,0.1-1c0.6,0,1.2,0.1,1.9,0.1
				S5,0.6,5.7,0.6s1.4,0,2,0.1c0.6,0,1.1,0,1.5,0c0.8,0,1.4,0,1.8,0.1c0.4,0.1,0.8,0.1,1,0.2c0.3,0.1,0.4,0.2,0.5,0.4
				s0.2,0.3,0.3,0.5l13.6,31.7L39.3,2z"/>
			<path id="XMLID_16_" class="st0" d="M81.8,3.4v16.3h9.9c0.8,0,1.4-0.4,1.8-1.2c0.4-0.8,0.6-1.8,0.9-3c0.1-0.5,0.5-0.8,1.1-0.8
				c0.1,0,0.3,0,0.5,0.1c0.2,0,0.4,0.1,0.5,0.1c-0.1,0.9-0.2,2-0.2,3.2c-0.1,1.2-0.1,2.2-0.1,3.1c0,0.7,0,1.6,0.1,2.6
				c0,1,0.1,2.2,0.3,3.5c-0.3,0.1-0.7,0.1-1,0.1c-0.7,0-1.1-0.3-1.2-0.8c-0.2-1.2-0.5-2.2-0.9-3s-1-1.2-1.8-1.2h-9.9v15
				c0,0.9,0.6,1.5,1.7,1.8s3,0.4,5.7,0.4h3.5c1.2,0,2.3-0.2,3.2-0.5c0.9-0.4,1.7-0.8,2.4-1.5s1.3-1.3,1.9-2.2
				c0.5-0.8,1.1-1.8,1.6-2.8c0.1-0.3,0.4-0.4,1-0.4c0.2,0,0.4,0.1,0.7,0.2c0.2,0.1,0.5,0.3,0.7,0.4c-0.4,0.8-0.7,1.8-1,2.9
				c-0.3,1.1-0.5,2.2-0.8,3.2s-0.5,1.9-0.8,2.6c-0.3,0.7-0.6,1.1-1,1.1c-0.3,0-0.8,0-1.5-0.1c-0.6,0-1.3-0.1-2.1-0.1
				c-0.7,0-1.5-0.1-2.3-0.1s-1.4-0.1-2-0.1H78.8c-1.2,0-2.5,0-3.9,0.1s-2.7,0.1-4,0.2c-0.1-0.4-0.1-0.8-0.1-1c0-0.6,0.2-0.9,0.6-1
				c1.6-0.3,2.8-0.6,3.5-1c0.7-0.3,1-0.9,1-1.8V5.3c0-0.8-0.3-1.4-0.9-1.7s-1.8-0.6-3.6-1c-0.4-0.1-0.6-0.4-0.6-1.1
				c0-0.2,0-0.4,0-0.5s0.1-0.3,0.1-0.5c1.8,0.1,3.3,0.2,4.6,0.3c1.2,0,2.3,0.1,3.3,0.1h12.5c1.9,0,3.6-0.1,5-0.2s2.3-0.2,2.8-0.2
				s0.9,0.4,1.1,1c0.2,0.7,0.3,1.5,0.5,2.5c0.1,1,0.3,2,0.4,3.1c0.2,1.1,0.5,2,1,2.8c-0.3,0.3-0.7,0.4-1.1,0.4
				c-0.5,0-0.9-0.2-1.1-0.6c-0.5-1.1-1-2-1.5-2.8s-1-1.4-1.6-1.9c-0.8-0.6-1.5-1-2.4-1.3s-1.9-0.4-3.2-0.4h-9.4V3.4z"/>
			<path id="XMLID_142_" class="st0" d="M146.7,26.9h-14.2l-4.1,10.2c-0.2,0.5-0.3,0.9-0.3,1.3c0,0.9,1.3,1.5,3.9,1.9
				c0.3,0,0.5,0.2,0.6,0.3c0.1,0.2,0.2,0.4,0.2,0.7s0,0.6-0.1,1c-1.1-0.1-2.4-0.2-3.6-0.2c-1.3-0.1-2.5-0.1-3.7-0.1
				c-0.8,0-1.7,0-2.6,0.1c-0.9,0-1.8,0.1-2.8,0.3c-0.1-0.3-0.1-0.7-0.1-1s0.1-0.5,0.2-0.8c0.1-0.2,0.3-0.3,0.7-0.4
				c1.3-0.2,2.3-0.5,3-0.8s1.1-0.8,1.4-1.5l15.3-36.8c0.3-0.7,0.7-1.1,1.2-1.1c0.2,0,0.4,0,0.8,0.1l15.4,38c0.3,0.6,0.8,1.1,1.7,1.4
				c0.9,0.3,1.8,0.6,2.6,0.7c0.3,0.1,0.5,0.2,0.6,0.3s0.2,0.4,0.2,0.8c0,0.3,0,0.6-0.1,1c-1.4-0.1-2.7-0.2-4-0.2
				c-1.3-0.1-2.5-0.1-3.7-0.1s-2.5,0-4.1,0.1c-1.5,0.1-2.9,0.1-4.1,0.2c-0.1-0.4-0.1-0.8-0.1-1c0-0.4,0.1-0.6,0.2-0.8
				c0.1-0.1,0.3-0.2,0.4-0.2c1.1-0.2,2-0.5,2.7-0.7c0.7-0.3,1-0.7,1-1.2c0-0.3-0.1-0.6-0.3-1L146.7,26.9z M145.7,24.3l-5.9-15.6
				l-6.2,15.6H145.7z"/>
			<path id="XMLID_13_" class="st0" d="M206.5,10.7c-0.4,0.1-0.7,0.1-1,0.1c-0.5,0-1-0.1-1.2-0.3c-0.3-0.2-0.4-0.4-0.6-0.7
				c-1.1-2.4-2.4-4.2-3.9-5.3s-3.6-1.6-6.2-1.6c-1,0-2,0.1-2.9,0.4S189,4,188.3,4.5s-1.2,1.2-1.6,1.9c-0.4,0.8-0.6,1.6-0.6,2.5
				c0,2,0.8,3.6,2.5,4.9s4.1,2.6,7.4,3.9c4.1,1.6,7.1,3.4,9,5.4s2.9,4.4,2.9,7.3c0,1.7-0.3,3.4-0.8,4.9s-1.4,2.8-2.5,3.9
				c-1.1,1.1-2.6,2-4.3,2.6c-1.8,0.6-3.9,1-6.4,1c-2.6,0-5-0.3-7.1-0.8s-3.9-1.3-5.4-2.2c-0.1-1.8-0.3-3.5-0.6-5.1
				c-0.3-1.7-0.5-3.3-0.9-5c0.3-0.1,0.7-0.2,1.1-0.2c0.5,0,0.9,0.1,1.2,0.3c0.3,0.2,0.5,0.6,0.7,1.1c1.1,3,2.4,5.3,4.1,6.7
				c1.7,1.4,4,2.2,7,2.2c1.4,0,2.5-0.2,3.6-0.6c1-0.4,1.9-0.9,2.5-1.6c0.7-0.7,1.2-1.4,1.5-2.3c0.3-0.8,0.5-1.8,0.5-2.7
				c0-2.2-0.8-3.9-2.3-5.2c-1.5-1.3-3.6-2.4-6.4-3.4c-1.8-0.7-3.5-1.4-5-2.1s-2.8-1.6-3.8-2.6c-1.1-1-1.9-2.1-2.4-3.4
				c-0.6-1.3-0.9-2.8-0.9-4.6c0-1.6,0.3-3,0.9-4.4c0.6-1.4,1.4-2.6,2.5-3.6s2.4-1.8,3.9-2.4s3.2-0.9,5.1-0.9c2,0,3.9,0.2,5.7,0.6
				s3.9,1,6.2,1.9c0.1,1.3,0.2,2.6,0.4,4.1C206,8.1,206.2,9.5,206.5,10.7"/>
			<path id="XMLID_138_" class="st0" d="M238.4,24.1v18.2c0,1,0.5,4.8,1.4,5.2s2.3,0.7,4.2,1c0.5,0.1,0.8,0.4,0.8,1.1
				c0,0.3,0,0.7-0.1,1.1c-1.2-0.1-2.6-0.2-4.2-0.2c-1.6-0.1-3.3-0.1-5.1-0.1c-1.1,0-2.3,0-3.7,0.1s-2.7,0.1-3.9,0.2
				c-0.1-0.4-0.1-0.8-0.1-1c0-0.6,0.2-0.9,0.6-1c1.7-0.3,2.8-0.7,3.4-1c0.6-0.3,0.9-4,0.9-4.9V5.3c0-0.8-0.3-1.5-1-1.8
				c-0.7-0.4-1.8-0.7-3.5-0.9c-0.4-0.1-0.6-0.5-0.6-1.1c0-0.3,0-0.6,0.1-1c1.2,0.1,2.4,0.2,3.8,0.2c1.3,0.1,2.6,0.1,3.8,0.1h8.9
				c4.6,0,8,1.1,10.3,3.2c2.3,2.2,3.4,5,3.4,8.4c0,1.4-0.3,2.7-0.9,4.1s-1.5,2.7-2.7,3.8c-1.2,1.1-2.6,2-4.3,2.8
				c-1.7,0.7-3.7,1.1-5.8,1.1L238.4,24.1L238.4,24.1z M241.8,21.5c3,0,5.2-0.7,6.9-2c1.6-1.3,2.4-3.5,2.4-6.7c0-1.3-0.1-2.5-0.4-3.7
				c-0.3-1.1-0.8-2.1-1.5-3s-1.7-1.6-2.9-2.1s-2.7-0.8-4.4-0.8h-3.4v18.2L241.8,21.5L241.8,21.5z"/>
			<path id="XMLID_135_" class="st0" d="M276.4,21.4c0-2.9,0.5-5.7,1.6-8.3s2.5-4.8,4.3-6.8c1.8-1.9,3.9-3.5,6.3-4.6
				s4.9-1.7,7.6-1.7c3.7,0,6.9,0.6,9.6,1.7c2.7,1.2,5,2.7,6.8,4.7s3.1,4.2,4,6.8s1.3,5.3,1.3,8.1c0,3.3-0.5,6.3-1.6,9
				c-1.1,2.6-2.6,4.9-4.5,6.7s-4.2,3.2-6.8,4.2c-2.6,1-5.4,1.5-8.3,1.5c-3,0-5.8-0.5-8.3-1.5s-4.6-2.5-6.4-4.3
				c-1.8-1.9-3.2-4.1-4.2-6.8C276.9,27.5,276.4,24.6,276.4,21.4 M298.2,39.7c2,0,3.8-0.4,5.5-1.1c1.6-0.8,3.1-1.8,4.2-3.2
				c1.2-1.4,2.1-3,2.8-4.8c0.7-1.9,1-3.9,1-6.1c0-3-0.3-5.9-0.9-8.5s-1.6-4.9-2.9-6.8S305,5.8,303,4.7s-4.3-1.6-6.9-1.6
				c-1.7,0-3.4,0.3-5,1s-3,1.6-4.2,2.9c-1.2,1.2-2.2,2.8-2.9,4.6c-0.7,1.8-1.1,3.9-1.1,6.3c0,3.1,0.3,6,1,8.7s1.7,5,2.9,7
				c1.3,2,2.9,3.5,4.8,4.6C293.6,39.2,295.8,39.7,298.2,39.7"/>
			<path id="XMLID_8_" class="st0" d="M370.2,31.9V5.4c0-0.9-0.3-1.6-1-2s-1.8-0.7-3.4-0.9c-0.5,0-0.7-0.4-0.7-1.1
				c0-0.3,0-0.6,0.1-1c1.1,0.1,2.1,0.2,3.2,0.2c1.1,0.1,2.1,0.1,3.1,0.1c0.9,0,1.9,0,2.9-0.1s2-0.1,3-0.2c0.1,0.4,0.1,0.8,0.1,1
				c0,0.7-0.2,1-0.6,1.1c-1.4,0.2-2.4,0.5-3,0.9c-0.5,0.4-0.8,1-0.8,1.8v37.4c-0.1,0-0.2,0.1-0.4,0.1c-0.2,0-0.4,0-0.5,0
				c-0.3,0-0.6-0.1-0.8-0.2c-0.3-0.1-0.6-0.5-0.9-0.9l-25.8-34v29.9c0,0.8,0.3,1.4,0.9,1.8c0.6,0.3,1.7,0.7,3.4,1
				c0.4,0.1,0.6,0.4,0.6,1c0,0.3,0,0.6-0.1,1c-1.1-0.1-2.1-0.2-3.2-0.2c-1.1-0.1-2.1-0.1-3-0.1c-0.8,0-1.8,0-3,0.1
				c-1.1,0.1-2.2,0.1-3.1,0.2c-0.1-0.4-0.1-0.8-0.1-1c0-0.6,0.2-0.9,0.7-1c1.5-0.3,2.5-0.6,3.1-1c0.5-0.3,0.8-0.9,0.8-1.8V5
				c0-0.7-0.2-1.2-0.7-1.6s-1.5-0.6-3-0.9c-0.5-0.1-0.7-0.4-0.7-1.1c0-0.2,0-0.4,0.1-0.6c0-0.1,0-0.3,0.1-0.4
				c0.8,0.1,1.7,0.1,2.4,0.2c0.7,0,1.4,0.1,2.2,0.1c0.8,0,1.4,0,2,0c1.2,0,2,0,2.4,0.1s0.7,0.3,1,0.6L370.2,31.9z"/>
			<path id="XMLID_7_" class="st0" d="M417.1,3.4v33.9c0,1,0.4,1.7,1.2,2.1c0.8,0.4,2.2,0.7,4.1,0.9c0.5,0,0.7,0.3,0.7,1
				c0,0.3,0,0.7-0.1,1.1c-1.4-0.1-2.8-0.2-4.3-0.2c-1.5-0.1-3-0.1-4.5-0.1s-3,0-4.5,0.1s-3,0.1-4.3,0.2c-0.1-0.4-0.1-0.8-0.1-1.1
				c0-0.6,0.2-0.9,0.6-1c1.9-0.3,3.3-0.6,4.1-1c0.8-0.4,1.3-1.1,1.3-2V3.4h-6.5c-1.3,0-2.3,0.1-3.2,0.4c-0.9,0.3-1.6,0.6-2.3,1.1
				c-0.6,0.5-1.2,1.2-1.7,2s-1,1.7-1.5,2.8c-0.1,0.2-0.2,0.4-0.4,0.4c-0.2,0.1-0.4,0.1-0.5,0.1c-0.5,0-0.9-0.1-1.2-0.4
				c0.4-1.5,0.7-2.9,1-4.1c0.2-1.2,0.4-2.2,0.6-2.9c0.2-0.8,0.3-1.4,0.5-1.8s0.5-0.6,0.9-0.6c0.3,0,0.7,0,1.3,0.1
				c0.5,0,1.1,0.1,1.7,0.1s1.2,0.1,1.9,0.1c0.6,0,1.2,0.1,1.8,0.1h21.2c0.5,0,1.1,0,1.7-0.1c0.6,0,1.3-0.1,1.9-0.1s1.2-0.1,1.7-0.1
				s1-0.1,1.3-0.1c0.4,0,0.7,0.2,0.9,0.7c0.2,0.4,0.4,1.1,0.5,1.9c0.2,0.8,0.3,1.8,0.5,3s0.5,2.5,1,3.9c-0.2,0.1-0.4,0.2-0.6,0.3
				s-0.4,0.1-0.7,0.1c-0.2,0-0.4,0-0.6-0.1s-0.4-0.2-0.4-0.4c-0.5-1.1-0.9-2-1.4-2.8s-1-1.5-1.6-2s-1.4-0.9-2.2-1.1
				c-0.9-0.3-1.9-0.4-3.2-0.4L417.1,3.4L417.1,3.4z"/>
			<path id="XMLID_6_" class="st0" d="M461.9,3.4v16.3h9.9c0.8,0,1.5-0.4,1.8-1.2c0.4-0.8,0.6-1.8,0.9-3c0.1-0.5,0.5-0.8,1.1-0.8
				c0.1,0,0.3,0,0.5,0.1c0.2,0,0.4,0.1,0.5,0.1c-0.1,0.9-0.2,2-0.2,3.2c-0.1,1.2-0.1,2.2-0.1,3.1c0,0.7,0,1.6,0.1,2.6
				c0,1,0.1,2.2,0.3,3.5c-0.3,0.1-0.7,0.1-1,0.1c-0.7,0-1.1-0.3-1.2-0.8c-0.2-1.2-0.5-2.2-0.9-3s-1-1.2-1.8-1.2h-9.9v15
				c0,0.9,0.6,1.5,1.7,1.8s3,0.4,5.7,0.4h3.5c1.2,0,2.3-0.2,3.2-0.5c0.9-0.4,1.7-0.8,2.4-1.5c0.7-0.6,1.3-1.3,1.9-2.2
				c0.5-0.8,1.1-1.8,1.6-2.8c0.1-0.3,0.4-0.4,1-0.4c0.2,0,0.4,0.1,0.7,0.2c0.2,0.1,0.5,0.3,0.7,0.4c-0.4,0.8-0.7,1.8-1,2.9
				c-0.3,1.1-0.5,2.2-0.8,3.2s-0.5,1.9-0.8,2.6c-0.3,0.7-0.6,1.1-1,1.1c-0.3,0-0.8,0-1.5-0.1c-0.6,0-1.3-0.1-2.1-0.1
				c-0.7,0-1.5-0.1-2.3-0.1s-1.4-0.1-2-0.1h-13.9c-1.2,0-2.5,0-3.9,0.1s-2.7,0.1-4,0.2c-0.1-0.4-0.1-0.8-0.1-1c0-0.6,0.2-0.9,0.6-1
				c1.6-0.3,2.8-0.6,3.5-1c0.7-0.3,1-0.9,1-1.8V5.3c0-0.8-0.3-1.4-0.9-1.7s-1.8-0.6-3.6-1c-0.4-0.1-0.6-0.4-0.6-1.1
				c0-0.2,0-0.4,0-0.5s0.1-0.3,0.1-0.5c1.8,0.1,3.3,0.2,4.6,0.3c1.2,0,2.3,0.1,3.3,0.1h12.5c1.9,0,3.6-0.1,5-0.2s2.3-0.2,2.8-0.2
				s0.9,0.4,1.1,1c0.2,0.7,0.3,1.5,0.5,2.5c0.1,1,0.3,2,0.4,3.1c0.2,1.1,0.5,2,1,2.8c-0.3,0.3-0.7,0.4-1.1,0.4
				c-0.6,0-0.9-0.2-1.1-0.6c-0.5-1.1-1-2-1.5-2.8s-1-1.4-1.6-1.9s-1.4-0.9-2.2-1.1c-0.9-0.3-1.9-0.4-3.2-0.4L461.9,3.4L461.9,3.4z"
				/>
		</g>
		<path id="XMLID_5_" class="st0" d="M295.3,60.4c-0.5-0.3-6.6,3.1-22.1,13.2c-2.5,1.6-16,11-31.2,21.7
			c-15.2-10.7-28.6-20-31.2-21.7c-15.5-10-21.6-13.5-22.1-13.2c-0.5,0.4,4.3,4.8,18.1,16.2c2.2,1.8,15,11.6,29.6,22.6
			c0,0,3.1,2.3,2.4,1.8c1.1,0.8,2.1,1.6,3.2,2.4l0,0l0,0c1.8-1.4,3.6-2.7,5.3-4l0.3-0.2c14.6-11,27.3-20.8,29.6-22.6
			C291,65.2,295.8,60.7,295.3,60.4z"/>
	</g>
	<path id="XMLID_124_" class="st0" d="M489.1,5.4c0-0.7,0.1-1.4,0.4-2.1s0.6-1.2,1.1-1.7s1-0.9,1.7-1.2s1.4-0.4,2.2-0.4
		c0.8,0,1.6,0.1,2.3,0.4c0.7,0.3,1.3,0.7,1.7,1.2c0.5,0.5,0.8,1.1,1.1,1.7c0.2,0.7,0.4,1.4,0.4,2.1s-0.1,1.5-0.4,2.1
		c-0.3,0.7-0.6,1.2-1.1,1.7s-1,0.9-1.7,1.2s-1.4,0.4-2.2,0.4c-0.8,0-1.6-0.1-2.2-0.4c-0.7-0.3-1.2-0.7-1.7-1.2s-0.8-1.1-1.1-1.7
		C489.3,6.9,489.1,6.2,489.1,5.4 M494.6,10c0.7,0,1.3-0.1,1.9-0.4c0.6-0.2,1-0.6,1.4-1s0.7-0.9,0.9-1.4c0.2-0.5,0.3-1.1,0.3-1.8
		c0-0.6-0.1-1.3-0.3-1.8c-0.2-0.6-0.5-1-0.9-1.5c-0.4-0.4-0.9-0.7-1.4-1c-0.6-0.2-1.2-0.4-1.8-0.4c-0.7,0-1.3,0.1-1.8,0.4
		c-0.5,0.2-1,0.6-1.4,1s-0.7,0.9-0.9,1.4c-0.2,0.5-0.3,1.1-0.3,1.8c0,0.6,0.1,1.2,0.3,1.7c0.2,0.5,0.5,1,0.8,1.5
		c0.4,0.4,0.8,0.8,1.4,1C493.2,9.9,493.8,10,494.6,10 M497.8,8.1c0,0.1-0.1,0.2-0.2,0.3s-0.2,0.2-0.3,0.3h-0.2
		c-0.2,0-0.4-0.1-0.6-0.2c-0.2-0.1-0.3-0.3-0.5-0.5l-1.6-2.3h-0.5v2c0,0.1,0,0.2,0.1,0.2c0.1,0.1,0.2,0.1,0.5,0.2
		c0.1,0,0.2,0.1,0.2,0.2c0,0.1,0,0.2-0.1,0.3c-0.2,0-0.4,0-0.6,0h-0.7h-0.6c-0.2,0-0.5,0-0.7,0V8.5V8.3c0-0.1,0-0.2,0.1-0.2
		c0.4-0.1,0.6-0.2,0.6-0.4V2.9c0-0.1,0-0.2-0.1-0.2s-0.2-0.1-0.4-0.1c-0.1,0-0.2-0.1-0.2-0.2c0-0.1,0-0.2,0.1-0.3c0.2,0,0.4,0,0.7,0
		c0.3,0,0.5,0,0.7,0h1.1c0.7,0,1.3,0.1,1.8,0.4s0.7,0.7,0.7,1.3c0,0.4-0.2,0.7-0.5,1.1c-0.3,0.3-0.7,0.5-1,0.6l1.3,1.9
		c0.1,0.2,0.3,0.3,0.4,0.4C497.5,8,497.6,8.1,497.8,8.1 M494.3,5.2c1,0,1.5-0.4,1.5-1.2c0-0.4-0.1-0.7-0.3-0.9
		c-0.2-0.2-0.6-0.3-1.2-0.3H494v2.4H494.3z"/>
</g>
</svg>
